<svg xmlns="http://www.w3.org/2000/svg" width="400" height="400" viewBox="0 0 400 400">
  <defs>
    <radialGradient id="bg" cx="50%" cy="40%" r="70%">
      <stop offset="0%" stop-color="#0f1a20"/>
      <stop offset="100%" stop-color="#0a1015"/>
    </radialGradient>
    <radialGradient id="glow" cx="50%" cy="45%" r="55%">
      <stop offset="0%" stop-color="#A78BFA" stop-opacity="0.25"/>
      <stop offset="100%" stop-color="#A78BFA" stop-opacity="0"/>
    </radialGradient>
    <radialGradient id="glow2" cx="50%" cy="45%" r="25%">
      <stop offset="0%" stop-color="#16A34A" stop-opacity="0.2"/>
      <stop offset="100%" stop-color="#16A34A" stop-opacity="0"/>
    </radialGradient>
  </defs>
  <rect width="400" height="400" fill="url(#bg)"/>
  <ellipse cx="200" cy="185" rx="165" ry="130" fill="url(#glow)"/>
  <ellipse cx="200" cy="180" rx="80" ry="70" fill="url(#glow2)"/>
  <circle cx="80" cy="60" r="1.5" fill="#16A34A" opacity="0.5"/>
  <circle cx="320" cy="90" r="1" fill="#A78BFA" opacity="0.4"/>
  <circle cx="50" cy="300" r="1.2" fill="#A78BFA" opacity="0.35"/>
  <circle cx="350" cy="280" r="1.8" fill="#16A34A" opacity="0.3"/>
  <circle cx="150" cy="350" r="1" fill="#A78BFA" opacity="0.3"/>
  <circle cx="300" cy="40" r="1.3" fill="#16A34A" opacity="0.4"/>
  <circle cx="200" cy="30" r="1" fill="#A78BFA" opacity="0.3"/>
  <g opacity="0.9">
    <!-- central large crystal (main archive) -->
    <polygon points="200,80 235,130 235,220 200,270 165,220 165,130" fill="none" stroke="#16A34A" stroke-width="2.5"/>
    <!-- inner data patterns (like circuitry in crystal) -->
    <line x1="180" y1="140" x2="220" y2="140" stroke="#22c55e" stroke-width="1" opacity="0.4"/>
    <line x1="175" y1="160" x2="225" y2="160" stroke="#22c55e" stroke-width="1" opacity="0.35"/>
    <line x1="175" y1="180" x2="225" y2="180" stroke="#22c55e" stroke-width="1" opacity="0.3"/>
    <line x1="178" y1="200" x2="222" y2="200" stroke="#22c55e" stroke-width="1" opacity="0.25"/>
    <!-- facet lines -->
    <line x1="200" y1="80" x2="165" y2="220" stroke="#22c55e" stroke-width="0.8" opacity="0.3"/>
    <line x1="200" y1="80" x2="235" y2="220" stroke="#22c55e" stroke-width="0.8" opacity="0.3"/>
    <!-- connected satellite crystals -->
    <polygon points="100,140 115,120 130,140 115,155" fill="none" stroke="#22c55e" stroke-width="1.5"/>
    <polygon points="270,135 285,115 300,135 285,150" fill="none" stroke="#22c55e" stroke-width="1.5"/>
    <polygon points="110,230 122,215 134,230 122,242" fill="none" stroke="#22c55e" stroke-width="1.5"/>
    <polygon points="268,225 280,210 292,225 280,238" fill="none" stroke="#22c55e" stroke-width="1.5"/>
    <!-- connection lines (neural network) -->
    <line x1="130" y1="135" x2="165" y2="150" stroke="#22c55e" stroke-width="1" opacity="0.5"/>
    <line x1="270" y1="135" x2="235" y2="150" stroke="#22c55e" stroke-width="1" opacity="0.5"/>
    <line x1="134" y1="230" x2="165" y2="210" stroke="#22c55e" stroke-width="1" opacity="0.5"/>
    <line x1="268" y1="225" x2="235" y2="210" stroke="#22c55e" stroke-width="1" opacity="0.5"/>
    <!-- data pulses on connections -->
    <circle cx="148" cy="143" r="2" fill="#22c55e" opacity="0.5"/>
    <circle cx="252" cy="142" r="2" fill="#22c55e" opacity="0.5"/>
    <circle cx="150" cy="220" r="2" fill="#22c55e" opacity="0.4"/>
    <circle cx="252" cy="218" r="2" fill="#22c55e" opacity="0.4"/>
    <!-- central glow -->
    <circle cx="200" cy="175" r="12" fill="#22c55e" opacity="0.15"/>
    <circle cx="200" cy="175" r="5" fill="#22c55e" opacity="0.3"/>
    <!-- energy aura -->
    <ellipse cx="200" cy="175" rx="80" ry="100" fill="none" stroke="#A78BFA" stroke-width="0.8" stroke-dasharray="4,5" opacity="0.2"/>
  </g>
  <rect x="2" y="2" width="396" height="396" fill="none" stroke="#A78BFA" stroke-width="1.5" stroke-opacity="0.4"/>
</svg>