<svg xmlns="http://www.w3.org/2000/svg" width="400" height="400" viewBox="0 0 400 400">
  <defs>
    <radialGradient id="bg" cx="50%" cy="40%" r="70%">
      <stop offset="0%" stop-color="#0f1a30"/>
      <stop offset="100%" stop-color="#0a1020"/>
    </radialGradient>
    <radialGradient id="glow" cx="50%" cy="45%" r="50%">
      <stop offset="0%" stop-color="#34D399" stop-opacity="0.15"/>
      <stop offset="100%" stop-color="#34D399" stop-opacity="0"/>
    </radialGradient>
    
  </defs>
  <rect width="400" height="400" fill="url(#bg)"/>
  <ellipse cx="200" cy="180" rx="150" ry="120" fill="url(#glow)"/>
  <circle cx="80" cy="60" r="1.5" fill="#60a5fa" opacity="0.4"/>
  <circle cx="320" cy="90" r="1" fill="#38bdf8" opacity="0.3"/>
  <circle cx="50" cy="300" r="1.2" fill="#34D399" opacity="0.35"/>
  <circle cx="350" cy="280" r="1.8" fill="#60a5fa" opacity="0.25"/>
  <circle cx="150" cy="350" r="1" fill="#38bdf8" opacity="0.3"/>
  <circle cx="300" cy="40" r="1.3" fill="#34D399" opacity="0.3"/>
  <g opacity="0.9">
      <rect x="160" y="120" width="80" height="120" rx="12" fill="none" stroke="#60a5fa" stroke-width="2"/>
      <circle cx="200" cy="170" r="25" fill="none" stroke="#38bdf8" stroke-width="2"/>
      <circle cx="200" cy="170" r="12" fill="#38bdf8" opacity="0.2"/>
      <path d="M200,145 L200,120" stroke="#38bdf8" stroke-width="2"/>
      <path d="M200,195 L200,220" stroke="#38bdf8" stroke-width="2"/>
      <line x1="175" y1="170" x2="160" y2="170" stroke="#38bdf8" stroke-width="1.5"/>
      <line x1="225" y1="170" x2="240" y2="170" stroke="#38bdf8" stroke-width="1.5"/>
      <path d="M170,240 Q200,260 230,240" fill="none" stroke="#60a5fa" stroke-width="1.5"/>
      <circle cx="200" cy="170" r="5" fill="#38bdf8" opacity="0.6"/>
      <line x1="160" y1="105" x2="160" y2="90" stroke="#60a5fa" stroke-width="2"/>
      <line x1="240" y1="105" x2="240" y2="90" stroke="#60a5fa" stroke-width="2"/>
      <circle cx="160" cy="87" r="4" fill="#38bdf8" opacity="0.4"/>
      <circle cx="240" cy="87" r="4" fill="#38bdf8" opacity="0.4"/></g>
  <rect x="2" y="2" width="396" height="396" fill="none"
    stroke="#34D399"
    stroke-width="1" stroke-opacity="0.3"/>
</svg>