<svg xmlns="http://www.w3.org/2000/svg" width="400" height="400" viewBox="0 0 400 400">
  <defs>
    <radialGradient id="bg" cx="50%" cy="40%" r="70%">
      <stop offset="0%" stop-color="#0f2a20"/>
      <stop offset="100%" stop-color="#0a1a15"/>
    </radialGradient>
    <radialGradient id="glow" cx="50%" cy="45%" r="50%">
      <stop offset="0%" stop-color="#34D399" stop-opacity="0.15"/>
      <stop offset="100%" stop-color="#34D399" stop-opacity="0"/>
    </radialGradient>
    
  </defs>
  <rect width="400" height="400" fill="url(#bg)"/>
  <ellipse cx="200" cy="180" rx="150" ry="120" fill="url(#glow)"/>
  <circle cx="80" cy="60" r="1.5" fill="#34d399" opacity="0.4"/>
  <circle cx="320" cy="90" r="1" fill="#06b6d4" opacity="0.3"/>
  <circle cx="50" cy="300" r="1.2" fill="#34D399" opacity="0.35"/>
  <circle cx="350" cy="280" r="1.8" fill="#34d399" opacity="0.25"/>
  <circle cx="150" cy="350" r="1" fill="#06b6d4" opacity="0.3"/>
  <circle cx="300" cy="40" r="1.3" fill="#34D399" opacity="0.3"/>
  <g opacity="0.9">
      <rect x="155" y="125" width="90" height="65" rx="6" fill="none" stroke="#34d399" stroke-width="2"/>
      <rect x="165" y="135" width="70" height="45" rx="3" fill="#06b6d4" opacity="0.1"/>
      <line x1="170" y1="148" x2="195" y2="148" stroke="#06b6d4" stroke-width="1.5"/>
      <line x1="170" y1="158" x2="210" y2="158" stroke="#06b6d4" stroke-width="1" opacity="0.6"/>
      <line x1="170" y1="168" x2="185" y2="168" stroke="#06b6d4" stroke-width="1" opacity="0.4"/>
      <rect x="175" y="195" width="50" height="6" rx="3" fill="none" stroke="#34d399" stroke-width="1.5"/>
      <circle cx="200" cy="240" r="22" fill="none" stroke="#34d399" stroke-width="2"/>
      <circle cx="192" cy="235" r="4" fill="#06b6d4"/>
      <circle cx="208" cy="235" r="4" fill="#06b6d4"/>
      <path d="M190,248 Q200,255 210,248" fill="none" stroke="#34d399" stroke-width="1.5"/>
      <line x1="200" y1="218" x2="200" y2="201" stroke="#34d399" stroke-width="1.5"/></g>
  <rect x="2" y="2" width="396" height="396" fill="none"
    stroke="#34D399"
    stroke-width="1" stroke-opacity="0.3"/>
</svg>