<svg xmlns="http://www.w3.org/2000/svg" width="400" height="400" viewBox="0 0 400 400">
  <defs>
    <radialGradient id="bg" cx="50%" cy="40%" r="70%">
      <stop offset="0%" stop-color="#1a0f15"/>
      <stop offset="100%" stop-color="#100a10"/>
    </radialGradient>
    <radialGradient id="glow" cx="50%" cy="42%" r="50%">
      <stop offset="0%" stop-color="#A78BFA" stop-opacity="0.25"/>
      <stop offset="100%" stop-color="#A78BFA" stop-opacity="0"/>
    </radialGradient>
    <radialGradient id="core" cx="50%" cy="50%" r="40%">
      <stop offset="0%" stop-color="#DC2626" stop-opacity="0.4"/>
      <stop offset="100%" stop-color="#DC2626" stop-opacity="0"/>
    </radialGradient>
  </defs>
  <rect width="400" height="400" fill="url(#bg)"/>
  <ellipse cx="200" cy="180" rx="155" ry="125" fill="url(#glow)"/>
  <circle cx="80" cy="60" r="1.5" fill="#DC2626" opacity="0.5"/>
  <circle cx="320" cy="90" r="1" fill="#A78BFA" opacity="0.4"/>
  <circle cx="50" cy="300" r="1.2" fill="#A78BFA" opacity="0.35"/>
  <circle cx="350" cy="280" r="1.8" fill="#DC2626" opacity="0.3"/>
  <circle cx="150" cy="350" r="1" fill="#A78BFA" opacity="0.3"/>
  <circle cx="300" cy="40" r="1.3" fill="#DC2626" opacity="0.4"/>
  <g opacity="0.9">
    <!-- geode outer shell (split open) -->
    <path d="M110,170 Q100,120 130,90 Q170,55 200,60 Q230,55 270,90 Q300,120 290,170" fill="none" stroke="#DC2626" stroke-width="2.5"/>
    <path d="M110,170 Q100,220 130,260 Q170,290 200,285 Q230,290 270,260 Q300,220 290,170" fill="none" stroke="#DC2626" stroke-width="2.5"/>
    <!-- inner crystalline surface -->
    <path d="M130,170 L140,130 L160,105 L200,95 L240,105 L260,130 L270,170" fill="none" stroke="#ef4444" stroke-width="1.5" opacity="0.6"/>
    <path d="M130,170 L140,210 L160,240 L200,250 L240,240 L260,210 L270,170" fill="none" stroke="#ef4444" stroke-width="1.5" opacity="0.6"/>
    <!-- heart-shaped crystal core -->
    <circle cx="200" cy="170" r="35" fill="url(#core)"/>
    <path d="M200,145 Q215,130 230,145 Q240,160 200,195 Q160,160 170,145 Q185,130 200,145" fill="none" stroke="#ef4444" stroke-width="2"/>
    <!-- inner heart glow -->
    <path d="M200,155 Q210,148 218,155 Q222,162 200,180 Q178,162 182,155 Q190,148 200,155" fill="#ef4444" opacity="0.15"/>
    <circle cx="200" cy="165" r="6" fill="#ef4444" opacity="0.3"/>
    <!-- pulsing rings -->
    <circle cx="200" cy="170" r="45" fill="none" stroke="#ef4444" stroke-width="1" opacity="0.3"/>
    <circle cx="200" cy="170" r="58" fill="none" stroke="#A78BFA" stroke-width="0.8" opacity="0.2"/>
    <circle cx="200" cy="170" r="72" fill="none" stroke="#A78BFA" stroke-width="0.5" opacity="0.12"/>
    <!-- crystal formations around -->
    <polygon points="120,140 127,125 134,140" fill="none" stroke="#ef4444" stroke-width="1" opacity="0.5"/>
    <polygon points="266,135 273,120 280,135" fill="none" stroke="#ef4444" stroke-width="1" opacity="0.5"/>
    <polygon points="130,210 136,198 142,210" fill="none" stroke="#ef4444" stroke-width="1" opacity="0.4"/>
    <polygon points="260,205 265,194 270,205" fill="none" stroke="#ef4444" stroke-width="1" opacity="0.4"/>
  </g>
  <rect x="2" y="2" width="396" height="396" fill="none" stroke="#A78BFA" stroke-width="1.5" stroke-opacity="0.4"/>
</svg>