<svg xmlns="http://www.w3.org/2000/svg" width="400" height="400" viewBox="0 0 400 400">
  <defs>
    <radialGradient id="bg" cx="50%" cy="40%" r="70%">
      <stop offset="0%" stop-color="#0f1a30"/>
      <stop offset="100%" stop-color="#0a1020"/>
    </radialGradient>
    <radialGradient id="glow" cx="50%" cy="45%" r="50%">
      <stop offset="0%" stop-color="#60A5FA" stop-opacity="0.15"/>
      <stop offset="100%" stop-color="#60A5FA" stop-opacity="0"/>
    </radialGradient>
    
  </defs>
  <rect width="400" height="400" fill="url(#bg)"/>
  <ellipse cx="200" cy="180" rx="150" ry="120" fill="url(#glow)"/>
  <circle cx="80" cy="60" r="1.5" fill="#60a5fa" opacity="0.4"/>
  <circle cx="320" cy="90" r="1" fill="#38bdf8" opacity="0.3"/>
  <circle cx="50" cy="300" r="1.2" fill="#60A5FA" opacity="0.35"/>
  <circle cx="350" cy="280" r="1.8" fill="#60a5fa" opacity="0.25"/>
  <circle cx="150" cy="350" r="1" fill="#38bdf8" opacity="0.3"/>
  <circle cx="300" cy="40" r="1.3" fill="#60A5FA" opacity="0.3"/>
  <g opacity="0.9">
      <path d="M130,250 L130,140 L200,100 L270,140 L270,250 Z" fill="none" stroke="#60a5fa" stroke-width="2"/>
      <line x1="200" y1="100" x2="200" y2="250" stroke="#60a5fa" stroke-width="1.5" stroke-dasharray="4,4"/>
      <circle cx="200" cy="170" r="20" fill="none" stroke="#38bdf8" stroke-width="2"/>
      <circle cx="200" cy="170" r="8" fill="#38bdf8" opacity="0.3"/>
      <rect x="145" y="210" width="20" height="40" rx="4" fill="none" stroke="#60a5fa" stroke-width="1.5"/>
      <rect x="235" y="210" width="20" height="40" rx="4" fill="none" stroke="#60a5fa" stroke-width="1.5"/>
      <polygon points="200,100 195,85 205,85" fill="#38bdf8"/>
      <line x1="130" y1="250" x2="270" y2="250" stroke="#60a5fa" stroke-width="2"/></g>
  <rect x="2" y="2" width="396" height="396" fill="none"
    stroke="#60A5FA"
    stroke-width="1" stroke-opacity="0.3"/>
</svg>