<svg xmlns="http://www.w3.org/2000/svg" width="400" height="400" viewBox="0 0 400 400">
  <defs>
    <radialGradient id="bg" cx="50%" cy="40%" r="70%">
      <stop offset="0%" stop-color="#1a0f2a"/>
      <stop offset="100%" stop-color="#0f0a1a"/>
    </radialGradient>
    <radialGradient id="glow" cx="50%" cy="45%" r="50%">
      <stop offset="0%" stop-color="#A78BFA" stop-opacity="0.25"/>
      <stop offset="100%" stop-color="#A78BFA" stop-opacity="0"/>
    </radialGradient>
    
  </defs>
  <rect width="400" height="400" fill="url(#bg)"/>
  <ellipse cx="200" cy="180" rx="150" ry="120" fill="url(#glow)"/>
  <circle cx="80" cy="60" r="1.5" fill="#a78bfa" opacity="0.4"/>
  <circle cx="320" cy="90" r="1" fill="#c084fc" opacity="0.3"/>
  <circle cx="50" cy="300" r="1.2" fill="#A78BFA" opacity="0.35"/>
  <circle cx="350" cy="280" r="1.8" fill="#a78bfa" opacity="0.25"/>
  <circle cx="150" cy="350" r="1" fill="#c084fc" opacity="0.3"/>
  <circle cx="300" cy="40" r="1.3" fill="#A78BFA" opacity="0.3"/>
  <g opacity="0.9">
      <path d="M120,280 L140,200 L170,220 L200,160 L230,220 L260,200 L280,280 Z" fill="none" stroke="#a78bfa" stroke-width="2"/>
      <rect x="180" y="200" width="40" height="50" rx="6" fill="none" stroke="#c084fc" stroke-width="2"/>
      <line x1="200" y1="200" x2="200" y2="160" stroke="#c084fc" stroke-width="1.5"/>
      <circle cx="200" cy="155" r="8" fill="#c084fc" opacity="0.3"/>
      <path d="M140,200 Q130,170 150,150" fill="none" stroke="#a78bfa" stroke-width="1.5" opacity="0.5"/>
      <path d="M260,200 Q270,170 250,150" fill="none" stroke="#a78bfa" stroke-width="1.5" opacity="0.5"/>
      <rect x="185" y="230" width="12" height="20" rx="3" fill="#c084fc" opacity="0.2"/>
      <rect x="203" y="230" width="12" height="20" rx="3" fill="#c084fc" opacity="0.2"/>
      <line x1="120" y1="280" x2="280" y2="280" stroke="#a78bfa" stroke-width="2"/></g>
  <rect x="2" y="2" width="396" height="396" fill="none"
    stroke="#A78BFA"
    stroke-width="2" stroke-opacity="0.6"/>
</svg>