<svg xmlns="http://www.w3.org/2000/svg" width="400" height="400" viewBox="0 0 400 400">
  <defs>
    <radialGradient id="bg" cx="50%" cy="40%" r="70%">
      <stop offset="0%" stop-color="#0f1a30"/>
      <stop offset="100%" stop-color="#0a1020"/>
    </radialGradient>
    <radialGradient id="glow" cx="50%" cy="45%" r="50%">
      <stop offset="0%" stop-color="#A78BFA" stop-opacity="0.25"/>
      <stop offset="100%" stop-color="#A78BFA" stop-opacity="0"/>
    </radialGradient>
    
  </defs>
  <rect width="400" height="400" fill="url(#bg)"/>
  <ellipse cx="200" cy="180" rx="150" ry="120" fill="url(#glow)"/>
  <circle cx="80" cy="60" r="1.5" fill="#60a5fa" opacity="0.4"/>
  <circle cx="320" cy="90" r="1" fill="#38bdf8" opacity="0.3"/>
  <circle cx="50" cy="300" r="1.2" fill="#A78BFA" opacity="0.35"/>
  <circle cx="350" cy="280" r="1.8" fill="#60a5fa" opacity="0.25"/>
  <circle cx="150" cy="350" r="1" fill="#38bdf8" opacity="0.3"/>
  <circle cx="300" cy="40" r="1.3" fill="#A78BFA" opacity="0.3"/>
  <g opacity="0.9">
      <circle cx="200" cy="180" r="60" fill="none" stroke="#60a5fa" stroke-width="2.5"/>
      <circle cx="200" cy="180" r="40" fill="none" stroke="#60a5fa" stroke-width="1.5" stroke-dasharray="6,4"/>
      <path d="M175,145 L160,120" stroke="#38bdf8" stroke-width="3"/>
      <path d="M225,145 L240,120" stroke="#38bdf8" stroke-width="3"/>
      <path d="M155,195 L125,205" stroke="#38bdf8" stroke-width="3"/>
      <path d="M245,195 L275,205" stroke="#38bdf8" stroke-width="3"/>
      <polygon points="200,180 190,165 210,165" fill="#38bdf8" opacity="0.5"/>
      <polygon points="200,180 190,195 210,195" fill="#38bdf8" opacity="0.5"/>
      <polygon points="200,180 185,180 185,175" fill="#38bdf8" opacity="0.3"/>
      <polygon points="200,180 215,180 215,175" fill="#38bdf8" opacity="0.3"/>
      <circle cx="200" cy="180" r="8" fill="#38bdf8" opacity="0.4"/></g>
  <rect x="2" y="2" width="396" height="396" fill="none"
    stroke="#A78BFA"
    stroke-width="2" stroke-opacity="0.6"/>
</svg>