<svg xmlns="http://www.w3.org/2000/svg" width="400" height="400" viewBox="0 0 400 400">
  <defs>
    <radialGradient id="bg" cx="50%" cy="40%" r="70%">
      <stop offset="0%" stop-color="#0f1a30"/>
      <stop offset="100%" stop-color="#0a1020"/>
    </radialGradient>
    <radialGradient id="glow" cx="50%" cy="45%" r="50%">
      <stop offset="0%" stop-color="#9CA3AF" stop-opacity="0.15"/>
      <stop offset="100%" stop-color="#9CA3AF" stop-opacity="0"/>
    </radialGradient>
    
  </defs>
  <rect width="400" height="400" fill="url(#bg)"/>
  <ellipse cx="200" cy="180" rx="150" ry="120" fill="url(#glow)"/>
  <circle cx="80" cy="60" r="1.5" fill="#60a5fa" opacity="0.4"/>
  <circle cx="320" cy="90" r="1" fill="#38bdf8" opacity="0.3"/>
  <circle cx="50" cy="300" r="1.2" fill="#9CA3AF" opacity="0.35"/>
  <circle cx="350" cy="280" r="1.8" fill="#60a5fa" opacity="0.25"/>
  <circle cx="150" cy="350" r="1" fill="#38bdf8" opacity="0.3"/>
  <circle cx="300" cy="40" r="1.3" fill="#9CA3AF" opacity="0.3"/>
  <g opacity="0.9">
      <circle cx="200" cy="140" r="28" fill="none" stroke="#60a5fa" stroke-width="2.5"/>
      <rect x="172" y="168" width="56" height="80" rx="6" fill="none" stroke="#60a5fa" stroke-width="2"/>
      <line x1="172" y1="200" x2="140" y2="230" stroke="#60a5fa" stroke-width="2.5"/>
      <line x1="228" y1="200" x2="260" y2="230" stroke="#60a5fa" stroke-width="2.5"/>
      <polygon points="140,230 130,260 150,255" fill="#38bdf8" opacity="0.5"/>
      <polygon points="260,230 270,260 250,255" fill="#38bdf8" opacity="0.5"/>
      <rect x="185" y="248" width="12" height="25" fill="#60a5fa" opacity="0.4"/>
      <rect x="203" y="248" width="12" height="25" fill="#60a5fa" opacity="0.4"/>
      <ellipse cx="200" cy="100" rx="50" ry="20" fill="none" stroke="#38bdf8" stroke-width="1.5" stroke-dasharray="4,3" opacity="0.5"/></g>
  <rect x="2" y="2" width="396" height="396" fill="none"
    stroke="#9CA3AF"
    stroke-width="1" stroke-opacity="0.3"/>
</svg>