<svg xmlns="http://www.w3.org/2000/svg" width="400" height="400" viewBox="0 0 400 400">
  <defs>
    <radialGradient id="bg" cx="50%" cy="40%" r="70%">
      <stop offset="0%" stop-color="#1a0f18"/>
      <stop offset="100%" stop-color="#100a10"/>
    </radialGradient>
    <radialGradient id="glow" cx="50%" cy="38%" r="55%">
      <stop offset="0%" stop-color="#FBBF24" stop-opacity="0.4"/>
      <stop offset="100%" stop-color="#FBBF24" stop-opacity="0"/>
    </radialGradient>
    <radialGradient id="glow2" cx="50%" cy="35%" r="28%">
      <stop offset="0%" stop-color="#DC2626" stop-opacity="0.3"/>
      <stop offset="100%" stop-color="#DC2626" stop-opacity="0"/>
    </radialGradient>
    <linearGradient id="lb" x1="0%" y1="0%" x2="100%" y2="100%">
      <stop offset="0%" stop-color="#FBBF24"/>
      <stop offset="50%" stop-color="#FDE68A"/>
      <stop offset="100%" stop-color="#F59E0B"/>
    </linearGradient>
  </defs>
  <rect width="400" height="400" fill="url(#bg)"/>
  <ellipse cx="200" cy="165" rx="170" ry="140" fill="url(#glow)"/>
  <ellipse cx="200" cy="150" rx="95" ry="75" fill="url(#glow2)"/>
  <circle cx="80" cy="60" r="2" fill="#FBBF24" opacity="0.5"/>
  <circle cx="320" cy="90" r="1.5" fill="#DC2626" opacity="0.4"/>
  <circle cx="50" cy="300" r="1.2" fill="#FBBF24" opacity="0.45"/>
  <circle cx="350" cy="280" r="1.8" fill="#DC2626" opacity="0.35"/>
  <circle cx="150" cy="350" r="1" fill="#FBBF24" opacity="0.4"/>
  <circle cx="300" cy="40" r="1.3" fill="#FBBF24" opacity="0.4"/>
  <circle cx="40" cy="180" r="1" fill="#DC2626" opacity="0.3"/>
  <circle cx="360" cy="170" r="1.2" fill="#FBBF24" opacity="0.3"/>
  <g opacity="0.95">
    <!-- elder woman head -->
    <circle cx="200" cy="105" r="26" fill="none" stroke="#DC2626" stroke-width="2.5"/>
    <!-- long flowing hair -->
    <path d="M176,95 Q170,80 175,70 Q185,60 200,58 Q215,60 225,70 Q230,80 224,95" fill="none" stroke="#DC2626" stroke-width="2"/>
    <path d="M176,105 Q168,130 165,160" fill="none" stroke="#DC2626" stroke-width="1.5" opacity="0.5"/>
    <path d="M224,105 Q232,130 235,160" fill="none" stroke="#DC2626" stroke-width="1.5" opacity="0.5"/>
    <!-- wise eyes -->
    <circle cx="192" cy="102" r="2" fill="#FBBF24" opacity="0.6"/>
    <circle cx="208" cy="102" r="2" fill="#FBBF24" opacity="0.6"/>
    <!-- robes -->
    <path d="M178,131 L160,150 L140,250 L260,250 L240,150 L222,131" fill="none" stroke="#DC2626" stroke-width="2"/>
    <!-- robe inner fold -->
    <line x1="200" y1="135" x2="200" y2="250" stroke="#ef4444" stroke-width="1" opacity="0.3"/>
    <!-- crystal crown/tiara -->
    <polygon points="188,78 192,65 196,78" fill="#FBBF24" opacity="0.5"/>
    <polygon points="196,76 200,60 204,76" fill="#FBBF24" opacity="0.6"/>
    <polygon points="204,78 208,65 212,78" fill="#FBBF24" opacity="0.5"/>
    <!-- crystal necklace -->
    <polygon points="197,138 200,132 203,138" fill="#FBBF24" opacity="0.5"/>
    <!-- arms with crystal energy -->
    <line x1="160" y1="160" x2="125" y2="200" stroke="#DC2626" stroke-width="2"/>
    <line x1="240" y1="160" x2="275" y2="200" stroke="#DC2626" stroke-width="2"/>
    <!-- crystals orbiting around her -->
    <polygon points="105,175 110,165 115,175" fill="#FBBF24" opacity="0.4"/>
    <polygon points="285,180 291,168 297,180" fill="#FBBF24" opacity="0.4"/>
    <polygon points="130,130 135,120 140,130" fill="#ef4444" opacity="0.3"/>
    <polygon points="260,125 265,115 270,125" fill="#ef4444" opacity="0.3"/>
    <polygon points="145,240 148,233 151,240" fill="#FBBF24" opacity="0.3"/>
    <polygon points="252,238 256,230 260,238" fill="#FBBF24" opacity="0.3"/>
    <!-- multiple aura layers -->
    <ellipse cx="200" cy="170" rx="75" ry="95" fill="none" stroke="#FBBF24" stroke-width="1" stroke-dasharray="3,5" opacity="0.3"/>
    <ellipse cx="200" cy="170" rx="95" ry="115" fill="none" stroke="#FBBF24" stroke-width="0.5" stroke-dasharray="2,8" opacity="0.2"/>
    <ellipse cx="200" cy="170" rx="110" ry="130" fill="none" stroke="#FBBF24" stroke-width="0.4" stroke-dasharray="1,10" opacity="0.1"/>
    <!-- feet/ground -->
    <line x1="185" y1="250" x2="182" y2="272" stroke="#DC2626" stroke-width="2"/>
    <line x1="215" y1="250" x2="218" y2="272" stroke="#DC2626" stroke-width="2"/>
  </g>
  <rect x="2" y="2" width="396" height="396" fill="none" stroke="url(#lb)" stroke-width="3" stroke-opacity="0.8"/>
</svg>