<svg xmlns="http://www.w3.org/2000/svg" width="400" height="400" viewBox="0 0 400 400">
  <defs>
    <radialGradient id="bg" cx="50%" cy="40%" r="70%">
      <stop offset="0%" stop-color="#2a1a0a"/>
      <stop offset="100%" stop-color="#1a0f0a"/>
    </radialGradient>
    <radialGradient id="glow" cx="50%" cy="45%" r="50%">
      <stop offset="0%" stop-color="#FBBF24" stop-opacity="0.4"/>
      <stop offset="100%" stop-color="#FBBF24" stop-opacity="0"/>
    </radialGradient>
    <linearGradient id="lb" x1="0%" y1="0%" x2="100%" y2="100%">
      <stop offset="0%" stop-color="#FBBF24"/>
      <stop offset="50%" stop-color="#FDE68A"/>
      <stop offset="100%" stop-color="#F59E0B"/>
    </linearGradient>
  </defs>
  <rect width="400" height="400" fill="url(#bg)"/>
  <ellipse cx="200" cy="180" rx="150" ry="120" fill="url(#glow)"/>
  <circle cx="80" cy="60" r="1.5" fill="#f59e0b" opacity="0.4"/>
  <circle cx="320" cy="90" r="1" fill="#ef4444" opacity="0.3"/>
  <circle cx="50" cy="300" r="1.2" fill="#FBBF24" opacity="0.35"/>
  <circle cx="350" cy="280" r="1.8" fill="#f59e0b" opacity="0.25"/>
  <circle cx="150" cy="350" r="1" fill="#ef4444" opacity="0.3"/>
  <circle cx="300" cy="40" r="1.3" fill="#FBBF24" opacity="0.3"/>
  <g opacity="0.9">
      <circle cx="200" cy="135" r="30" fill="none" stroke="#f59e0b" stroke-width="3"/>
      <circle cx="190" cy="130" r="6" fill="#ef4444"/>
      <circle cx="215" cy="128" r="8" fill="#ef4444" opacity="0.7"/>
      <line x1="200" y1="165" x2="200" y2="270" stroke="#f59e0b" stroke-width="3"/>
      <line x1="200" y1="195" x2="145" y2="240" stroke="#f59e0b" stroke-width="3"/>
      <line x1="200" y1="195" x2="255" y2="240" stroke="#f59e0b" stroke-width="3"/>
      <polygon points="255,240 280,220 270,250" fill="#ef4444" opacity="0.6"/>
      <polygon points="145,240 120,220 130,250" fill="#ef4444" opacity="0.6"/>
      <path d="M175,105 L185,80 L195,100" fill="none" stroke="#ef4444" stroke-width="2"/>
      <path d="M205,100 L215,78 L225,105" fill="none" stroke="#ef4444" stroke-width="2"/>
      <rect x="185" y="270" width="12" height="20" fill="#f59e0b" opacity="0.4"/>
      <rect x="203" y="270" width="12" height="20" fill="#f59e0b" opacity="0.4"/></g>
  <rect x="2" y="2" width="396" height="396" fill="none"
    stroke="url(#lb)"
    stroke-width="3" stroke-opacity="0.8"/>
</svg>