<svg xmlns="http://www.w3.org/2000/svg" width="400" height="400" viewBox="0 0 400 400">
  <defs>
    <radialGradient id="bg" cx="50%" cy="40%" r="70%">
      <stop offset="0%" stop-color="#0f2a20"/>
      <stop offset="100%" stop-color="#0a1a15"/>
    </radialGradient>
    <radialGradient id="glow" cx="50%" cy="45%" r="50%">
      <stop offset="0%" stop-color="#FBBF24" stop-opacity="0.4"/>
      <stop offset="100%" stop-color="#FBBF24" stop-opacity="0"/>
    </radialGradient>
    <linearGradient id="lb" x1="0%" y1="0%" x2="100%" y2="100%">
      <stop offset="0%" stop-color="#FBBF24"/>
      <stop offset="50%" stop-color="#FDE68A"/>
      <stop offset="100%" stop-color="#F59E0B"/>
    </linearGradient>
  </defs>
  <rect width="400" height="400" fill="url(#bg)"/>
  <ellipse cx="200" cy="180" rx="150" ry="120" fill="url(#glow)"/>
  <circle cx="80" cy="60" r="1.5" fill="#34d399" opacity="0.4"/>
  <circle cx="320" cy="90" r="1" fill="#06b6d4" opacity="0.3"/>
  <circle cx="50" cy="300" r="1.2" fill="#FBBF24" opacity="0.35"/>
  <circle cx="350" cy="280" r="1.8" fill="#34d399" opacity="0.25"/>
  <circle cx="150" cy="350" r="1" fill="#06b6d4" opacity="0.3"/>
  <circle cx="300" cy="40" r="1.3" fill="#FBBF24" opacity="0.3"/>
  <g opacity="0.9">
      <ellipse cx="200" cy="160" rx="45" ry="40" fill="none" stroke="#34d399" stroke-width="2.5"/>
      <path d="M160,175 Q200,210 240,175" fill="none" stroke="#34d399" stroke-width="2"/>
      <circle cx="185" cy="155" r="10" fill="none" stroke="#06b6d4" stroke-width="2"/>
      <circle cx="215" cy="155" r="10" fill="none" stroke="#06b6d4" stroke-width="2"/>
      <circle cx="185" cy="155" r="4" fill="#06b6d4" opacity="0.5"/>
      <circle cx="215" cy="155" r="4" fill="#06b6d4" opacity="0.5"/>
      <line x1="200" y1="120" x2="200" y2="90" stroke="#06b6d4" stroke-width="2"/>
      <line x1="200" y1="90" x2="185" y2="80" stroke="#06b6d4" stroke-width="1.5"/>
      <line x1="200" y1="90" x2="215" y2="80" stroke="#06b6d4" stroke-width="1.5"/>
      <line x1="200" y1="90" x2="200" y2="75" stroke="#06b6d4" stroke-width="1.5"/>
      <path d="M160,175 L155,220 L200,230 L245,220 L240,175" fill="none" stroke="#34d399" stroke-width="1.5" stroke-dasharray="4,3"/></g>
  <rect x="2" y="2" width="396" height="396" fill="none"
    stroke="url(#lb)"
    stroke-width="3" stroke-opacity="0.8"/>
</svg>