<svg xmlns="http://www.w3.org/2000/svg" width="400" height="400" viewBox="0 0 400 400">
  <defs>
    <radialGradient id="bg" cx="50%" cy="40%" r="70%">
      <stop offset="0%" stop-color="#0a1a2a"/>
      <stop offset="100%" stop-color="#0a1520"/>
    </radialGradient>
    <radialGradient id="glow" cx="50%" cy="45%" r="50%">
      <stop offset="0%" stop-color="#9CA3AF" stop-opacity="0.15"/>
      <stop offset="100%" stop-color="#9CA3AF" stop-opacity="0"/>
    </radialGradient>
    <filter id="blur">
      <feGaussianBlur stdDeviation="20"/>
    </filter>
    
  </defs>

  <!-- Background -->
  <rect width="400" height="400" fill="url(#bg)"/>

  <!-- Ambient glow -->
  <ellipse cx="200" cy="180" rx="150" ry="120" fill="url(#glow)"/>

  <!-- Particle dots -->
  <circle cx="80" cy="60" r="1.5" fill="#06b6d4" opacity="0.4"/>
  <circle cx="320" cy="90" r="1" fill="#3b82f6" opacity="0.3"/>
  <circle cx="50" cy="300" r="1.2" fill="#9CA3AF" opacity="0.35"/>
  <circle cx="350" cy="280" r="1.8" fill="#06b6d4" opacity="0.25"/>
  <circle cx="150" cy="350" r="1" fill="#3b82f6" opacity="0.3"/>
  <circle cx="300" cy="40" r="1.3" fill="#9CA3AF" opacity="0.3"/>
  <circle cx="120" cy="120" r="0.8" fill="#06b6d4" opacity="0.2"/>
  <circle cx="280" cy="320" r="1.5" fill="#3b82f6" opacity="0.2"/>

  <!-- Icon -->
  <g opacity="0.9">
    <circle cx="200" cy="150" r="25" fill="none" stroke="#06b6d4" stroke-width="2"/>
      <line x1="180" y1="140" x2="220" y2="140" stroke="#3b82f6" stroke-width="2"/>
      <circle cx="193" cy="155" r="5" fill="#3b82f6"/>
      <line x1="210" y1="150" x2="220" y2="160" stroke="#06b6d4" stroke-width="2"/>
      <line x1="200" y1="175" x2="200" y2="260" stroke="#06b6d4" stroke-width="2"/>
      <line x1="200" y1="200" x2="250" y2="190" stroke="#3b82f6" stroke-width="2.5"/>
      <polygon points="250,190 265,185 255,195" fill="#3b82f6"/>
  </g>

  <!-- Rarity border glow -->
  <rect x="2" y="2" width="396" height="396" rx="0" fill="none"
    stroke="#9CA3AF"
    stroke-width="1"
    stroke-opacity="0.3"/>

  <!-- Vignette -->
  <rect width="400" height="400" fill="url(#bg)" opacity="0" />
  <rect x="0" y="300" width="400" height="100" fill="url(#bg)" opacity="0.3"/>
</svg>