<svg xmlns="http://www.w3.org/2000/svg" width="400" height="400" viewBox="0 0 400 400">
  <defs>
    <radialGradient id="bg" cx="50%" cy="40%" r="70%">
      <stop offset="0%" stop-color="#0f1a22"/>
      <stop offset="100%" stop-color="#0a1015"/>
    </radialGradient>
    <radialGradient id="glow" cx="50%" cy="38%" r="55%">
      <stop offset="0%" stop-color="#FBBF24" stop-opacity="0.4"/>
      <stop offset="100%" stop-color="#FBBF24" stop-opacity="0"/>
    </radialGradient>
    <radialGradient id="glow2" cx="50%" cy="35%" r="28%">
      <stop offset="0%" stop-color="#16A34A" stop-opacity="0.3"/>
      <stop offset="100%" stop-color="#16A34A" stop-opacity="0"/>
    </radialGradient>
    <linearGradient id="lb" x1="0%" y1="0%" x2="100%" y2="100%">
      <stop offset="0%" stop-color="#FBBF24"/>
      <stop offset="50%" stop-color="#FDE68A"/>
      <stop offset="100%" stop-color="#F59E0B"/>
    </linearGradient>
  </defs>
  <rect width="400" height="400" fill="url(#bg)"/>
  <ellipse cx="200" cy="165" rx="170" ry="140" fill="url(#glow)"/>
  <ellipse cx="200" cy="150" cx="200" ry="75" fill="url(#glow2)"/>
  <circle cx="80" cy="60" r="2" fill="#FBBF24" opacity="0.5"/>
  <circle cx="320" cy="90" r="1.5" fill="#16A34A" opacity="0.4"/>
  <circle cx="50" cy="300" r="1.2" fill="#FBBF24" opacity="0.45"/>
  <circle cx="350" cy="280" r="1.8" fill="#16A34A" opacity="0.35"/>
  <circle cx="150" cy="350" r="1" fill="#FBBF24" opacity="0.4"/>
  <circle cx="300" cy="40" r="1.3" fill="#FBBF24" opacity="0.4"/>
  <circle cx="40" cy="180" r="1" fill="#16A34A" opacity="0.3"/>
  <circle cx="360" cy="170" r="1.2" fill="#FBBF24" opacity="0.3"/>
  <g opacity="0.95">
    <!-- head -->
    <circle cx="200" cy="105" r="26" fill="none" stroke="#16A34A" stroke-width="2.5"/>
    <!-- tied-up hair / bun -->
    <circle cx="200" cy="82" r="10" fill="none" stroke="#16A34A" stroke-width="2"/>
    <!-- glasses -->
    <circle cx="192" cy="103" r="7" fill="none" stroke="#22c55e" stroke-width="1"/>
    <circle cx="208" cy="103" r="7" fill="none" stroke="#22c55e" stroke-width="1"/>
    <line x1="199" y1="103" x2="201" y2="103" stroke="#22c55e" stroke-width="1"/>
    <!-- wise eyes behind glasses -->
    <circle cx="192" cy="103" r="2" fill="#FBBF24" opacity="0.5"/>
    <circle cx="208" cy="103" r="2" fill="#FBBF24" opacity="0.5"/>
    <!-- lab coat body -->
    <path d="M178,131 L165,145 L155,230 L245,230 L235,145 L222,131" fill="none" stroke="#16A34A" stroke-width="2"/>
    <!-- coat lapels -->
    <path d="M185,131 L195,155 L200,145 L205,155 L215,131" fill="none" stroke="#22c55e" stroke-width="1" opacity="0.5"/>
    <!-- crystal data tablet in left hand -->
    <line x1="155" y1="160" x2="125" y2="195" stroke="#16A34A" stroke-width="2"/>
    <rect x="110" y="185" width="22" height="30" rx="2" fill="none" stroke="#22c55e" stroke-width="1.5"/>
    <line x1="115" y1="195" x2="127" y2="195" stroke="#22c55e" stroke-width="0.8" opacity="0.4"/>
    <line x1="115" y1="200" x2="127" y2="200" stroke="#22c55e" stroke-width="0.8" opacity="0.3"/>
    <line x1="115" y1="205" x2="124" y2="205" stroke="#22c55e" stroke-width="0.8" opacity="0.3"/>
    <!-- right arm gesturing -->
    <line x1="245" y1="160" x2="275" y2="180" stroke="#16A34A" stroke-width="2"/>
    <!-- holographic crystal display from hand -->
    <polygon points="275,175 285,155 295,175" fill="#FBBF24" opacity="0.15" stroke="#FBBF24" stroke-width="1" opacity="0.4"/>
    <circle cx="285" cy="167" r="3" fill="#FBBF24" opacity="0.2"/>
    <!-- legs -->
    <line x1="188" y1="230" x2="183" y2="275" stroke="#16A34A" stroke-width="2"/>
    <line x1="212" y1="230" x2="217" y2="275" stroke="#16A34A" stroke-width="2"/>
    <!-- crystal knowledge orbiting -->
    <polygon points="110,130 115,120 120,130" fill="#FBBF24" opacity="0.35"/>
    <polygon points="285,140 290,130 295,140" fill="#FBBF24" opacity="0.35"/>
    <polygon points="140,250 144,243 148,250" fill="#22c55e" opacity="0.25"/>
    <polygon points="256,248 260,240 264,248" fill="#22c55e" opacity="0.25"/>
    <!-- wisdom aura layers -->
    <ellipse cx="200" cy="170" rx="78" ry="95" fill="none" stroke="#FBBF24" stroke-width="1" stroke-dasharray="3,5" opacity="0.3"/>
    <ellipse cx="200" cy="170" rx="95" ry="115" fill="none" stroke="#FBBF24" stroke-width="0.5" stroke-dasharray="2,8" opacity="0.2"/>
    <ellipse cx="200" cy="170" rx="112" ry="132" fill="none" stroke="#FBBF24" stroke-width="0.3" stroke-dasharray="1,10" opacity="0.1"/>
  </g>
  <rect x="2" y="2" width="396" height="396" fill="none" stroke="url(#lb)" stroke-width="3" stroke-opacity="0.8"/>
</svg>