<svg xmlns="http://www.w3.org/2000/svg" width="400" height="400" viewBox="0 0 400 400">
  <defs>
    <radialGradient id="bg" cx="50%" cy="40%" r="70%">
      <stop offset="0%" stop-color="#2a1a0a"/>
      <stop offset="100%" stop-color="#1a0f0a"/>
    </radialGradient>
    <radialGradient id="glow" cx="50%" cy="45%" r="50%">
      <stop offset="0%" stop-color="#34D399" stop-opacity="0.15"/>
      <stop offset="100%" stop-color="#34D399" stop-opacity="0"/>
    </radialGradient>
    
  </defs>
  <rect width="400" height="400" fill="url(#bg)"/>
  <ellipse cx="200" cy="180" rx="150" ry="120" fill="url(#glow)"/>
  <circle cx="80" cy="60" r="1.5" fill="#f59e0b" opacity="0.4"/>
  <circle cx="320" cy="90" r="1" fill="#ef4444" opacity="0.3"/>
  <circle cx="50" cy="300" r="1.2" fill="#34D399" opacity="0.35"/>
  <circle cx="350" cy="280" r="1.8" fill="#f59e0b" opacity="0.25"/>
  <circle cx="150" cy="350" r="1" fill="#ef4444" opacity="0.3"/>
  <circle cx="300" cy="40" r="1.3" fill="#34D399" opacity="0.3"/>
  <g opacity="0.9">
      <path d="M140,160 L200,100 L260,160" fill="none" stroke="#ef4444" stroke-width="2.5"/>
      <path d="M120,200 L200,140 L280,200" fill="none" stroke="#f59e0b" stroke-width="2" opacity="0.6"/>
      <path d="M100,240 L200,180 L300,240" fill="none" stroke="#f59e0b" stroke-width="1.5" opacity="0.3"/>
      <polygon points="200,170 190,200 210,190 195,230 220,195 200,210" fill="#ef4444" opacity="0.6" stroke="#ef4444" stroke-width="1.5"/>
      <circle cx="140" cy="120" r="2" fill="#ef4444" opacity="0.6"/>
      <circle cx="260" cy="130" r="1.5" fill="#ef4444" opacity="0.5"/>
      <circle cx="170" cy="250" r="2" fill="#f59e0b" opacity="0.4"/>
      <circle cx="240" cy="260" r="1.8" fill="#f59e0b" opacity="0.3"/></g>
  <rect x="2" y="2" width="396" height="396" fill="none"
    stroke="#34D399"
    stroke-width="1" stroke-opacity="0.3"/>
</svg>