<svg xmlns="http://www.w3.org/2000/svg" width="400" height="400" viewBox="0 0 400 400">
  <defs>
    <radialGradient id="bg" cx="50%" cy="40%" r="70%">
      <stop offset="0%" stop-color="#2a1a0a"/>
      <stop offset="100%" stop-color="#1a0f0a"/>
    </radialGradient>
    <radialGradient id="glow" cx="50%" cy="45%" r="50%">
      <stop offset="0%" stop-color="#60A5FA" stop-opacity="0.15"/>
      <stop offset="100%" stop-color="#60A5FA" stop-opacity="0"/>
    </radialGradient>
    
  </defs>
  <rect width="400" height="400" fill="url(#bg)"/>
  <ellipse cx="200" cy="180" rx="150" ry="120" fill="url(#glow)"/>
  <circle cx="80" cy="60" r="1.5" fill="#f59e0b" opacity="0.4"/>
  <circle cx="320" cy="90" r="1" fill="#ef4444" opacity="0.3"/>
  <circle cx="50" cy="300" r="1.2" fill="#60A5FA" opacity="0.35"/>
  <circle cx="350" cy="280" r="1.8" fill="#f59e0b" opacity="0.25"/>
  <circle cx="150" cy="350" r="1" fill="#ef4444" opacity="0.3"/>
  <circle cx="300" cy="40" r="1.3" fill="#60A5FA" opacity="0.3"/>
  <g opacity="0.9">
      <rect x="140" y="150" width="120" height="110" rx="4" fill="none" stroke="#f59e0b" stroke-width="2.5"/>
      <rect x="175" y="220" width="50" height="40" rx="4" fill="none" stroke="#ef4444" stroke-width="2"/>
      <rect x="150" y="130" width="25" height="30" rx="2" fill="none" stroke="#f59e0b" stroke-width="2"/>
      <rect x="225" y="130" width="25" height="30" rx="2" fill="none" stroke="#f59e0b" stroke-width="2"/>
      <polygon points="162,130 162,110 150,130" fill="#ef4444" opacity="0.5"/>
      <polygon points="237,130 237,110 250,130" fill="#ef4444" opacity="0.5"/>
      <rect x="155" y="170" width="15" height="15" fill="none" stroke="#ef4444" stroke-width="1.5"/>
      <rect x="230" y="170" width="15" height="15" fill="none" stroke="#ef4444" stroke-width="1.5"/>
      <line x1="140" y1="260" x2="260" y2="260" stroke="#f59e0b" stroke-width="2.5"/>
      <line x1="130" y1="260" x2="270" y2="260" stroke="#f59e0b" stroke-width="1" opacity="0.5"/></g>
  <rect x="2" y="2" width="396" height="396" fill="none"
    stroke="#60A5FA"
    stroke-width="1" stroke-opacity="0.3"/>
</svg>