<svg xmlns="http://www.w3.org/2000/svg" width="400" height="400" viewBox="0 0 400 400">
  <defs>
    <radialGradient id="bg" cx="50%" cy="40%" r="70%">
      <stop offset="0%" stop-color="#1a0f2a"/>
      <stop offset="100%" stop-color="#0f0a1a"/>
    </radialGradient>
    <radialGradient id="glow" cx="50%" cy="45%" r="50%">
      <stop offset="0%" stop-color="#60A5FA" stop-opacity="0.15"/>
      <stop offset="100%" stop-color="#60A5FA" stop-opacity="0"/>
    </radialGradient>
    
  </defs>
  <rect width="400" height="400" fill="url(#bg)"/>
  <ellipse cx="200" cy="180" rx="150" ry="120" fill="url(#glow)"/>
  <circle cx="80" cy="60" r="1.5" fill="#a78bfa" opacity="0.4"/>
  <circle cx="320" cy="90" r="1" fill="#c084fc" opacity="0.3"/>
  <circle cx="50" cy="300" r="1.2" fill="#60A5FA" opacity="0.35"/>
  <circle cx="350" cy="280" r="1.8" fill="#a78bfa" opacity="0.25"/>
  <circle cx="150" cy="350" r="1" fill="#c084fc" opacity="0.3"/>
  <circle cx="300" cy="40" r="1.3" fill="#60A5FA" opacity="0.3"/>
  <g opacity="0.9">
      <rect x="165" y="130" width="70" height="100" rx="8" fill="none" stroke="#a78bfa" stroke-width="2"/>
      <circle cx="200" cy="170" r="20" fill="none" stroke="#c084fc" stroke-width="2"/>
      <line x1="200" y1="150" x2="200" y2="130" stroke="#c084fc" stroke-width="2"/>
      <line x1="200" y1="100" x2="200" y2="130" stroke="#a78bfa" stroke-width="2"/>
      <line x1="190" y1="100" x2="210" y2="100" stroke="#a78bfa" stroke-width="2"/>
      <path d="M170,100 Q200,80 230,100" fill="none" stroke="#c084fc" stroke-width="1.5" stroke-dasharray="3,3"/>
      <path d="M155,90 Q200,60 245,90" fill="none" stroke="#c084fc" stroke-width="1" stroke-dasharray="3,3" opacity="0.5"/>
      <line x1="183" y1="170" x2="175" y2="170" stroke="#c084fc" stroke-width="2"/>
      <line x1="217" y1="170" x2="225" y2="170" stroke="#c084fc" stroke-width="2"/>
      <circle cx="200" cy="170" r="6" fill="#c084fc" opacity="0.4"/>
      <line x1="200" y1="230" x2="200" y2="260" stroke="#a78bfa" stroke-width="1.5"/>
      <ellipse cx="200" cy="265" rx="15" ry="5" fill="none" stroke="#a78bfa" stroke-width="1.5"/></g>
  <rect x="2" y="2" width="396" height="396" fill="none"
    stroke="#60A5FA"
    stroke-width="1" stroke-opacity="0.3"/>
</svg>