<svg xmlns="http://www.w3.org/2000/svg" width="400" height="400" viewBox="0 0 400 400">
  <defs>
    <radialGradient id="bg" cx="50%" cy="40%" r="70%">
      <stop offset="0%" stop-color="#1a0a3a"/>
      <stop offset="100%" stop-color="#0c0a2a"/>
    </radialGradient>
    <radialGradient id="glow" cx="50%" cy="45%" r="50%">
      <stop offset="0%" stop-color="#60A5FA" stop-opacity="0.15"/>
      <stop offset="100%" stop-color="#60A5FA" stop-opacity="0"/>
    </radialGradient>
    <filter id="blur">
      <feGaussianBlur stdDeviation="20"/>
    </filter>
    
  </defs>

  <!-- Background -->
  <rect width="400" height="400" fill="url(#bg)"/>

  <!-- Ambient glow -->
  <ellipse cx="200" cy="180" rx="150" ry="120" fill="url(#glow)"/>

  <!-- Particle dots -->
  <circle cx="80" cy="60" r="1.5" fill="#c084fc" opacity="0.4"/>
  <circle cx="320" cy="90" r="1" fill="#38bdf8" opacity="0.3"/>
  <circle cx="50" cy="300" r="1.2" fill="#60A5FA" opacity="0.35"/>
  <circle cx="350" cy="280" r="1.8" fill="#c084fc" opacity="0.25"/>
  <circle cx="150" cy="350" r="1" fill="#38bdf8" opacity="0.3"/>
  <circle cx="300" cy="40" r="1.3" fill="#60A5FA" opacity="0.3"/>
  <circle cx="120" cy="120" r="0.8" fill="#c084fc" opacity="0.2"/>
  <circle cx="280" cy="320" r="1.5" fill="#38bdf8" opacity="0.2"/>

  <!-- Icon -->
  <g opacity="0.9">
    <ellipse cx="200" cy="180" rx="40" ry="50" fill="none" stroke="#c084fc" stroke-width="2" stroke-dasharray="4,4"/>
      <circle cx="188" cy="170" r="8" fill="#38bdf8" opacity="0.8"/>
      <circle cx="212" cy="170" r="8" fill="#38bdf8" opacity="0.8"/>
      <path d="M160,230 Q170,260 180,240 Q190,260 200,240 Q210,260 220,240 Q230,260 240,230" fill="none" stroke="#c084fc" stroke-width="2" stroke-dasharray="4,4"/>
  </g>

  <!-- Rarity border glow -->
  <rect x="2" y="2" width="396" height="396" rx="0" fill="none"
    stroke="#60A5FA"
    stroke-width="1"
    stroke-opacity="0.3"/>

  <!-- Vignette -->
  <rect width="400" height="400" fill="url(#bg)" opacity="0" />
  <rect x="0" y="300" width="400" height="100" fill="url(#bg)" opacity="0.3"/>
</svg>