<svg xmlns="http://www.w3.org/2000/svg" width="400" height="400" viewBox="0 0 400 400">
  <defs>
    <radialGradient id="bg" cx="50%" cy="40%" r="70%">
      <stop offset="0%" stop-color="#1a0f2a"/>
      <stop offset="100%" stop-color="#0f0a1a"/>
    </radialGradient>
    <radialGradient id="glow" cx="50%" cy="45%" r="50%">
      <stop offset="0%" stop-color="#9CA3AF" stop-opacity="0.15"/>
      <stop offset="100%" stop-color="#9CA3AF" stop-opacity="0"/>
    </radialGradient>
    
  </defs>
  <rect width="400" height="400" fill="url(#bg)"/>
  <ellipse cx="200" cy="180" rx="150" ry="120" fill="url(#glow)"/>
  <circle cx="80" cy="60" r="1.5" fill="#a78bfa" opacity="0.4"/>
  <circle cx="320" cy="90" r="1" fill="#c084fc" opacity="0.3"/>
  <circle cx="50" cy="300" r="1.2" fill="#9CA3AF" opacity="0.35"/>
  <circle cx="350" cy="280" r="1.8" fill="#a78bfa" opacity="0.25"/>
  <circle cx="150" cy="350" r="1" fill="#c084fc" opacity="0.3"/>
  <circle cx="300" cy="40" r="1.3" fill="#9CA3AF" opacity="0.3"/>
  <g opacity="0.9">
      <circle cx="200" cy="145" r="22" fill="none" stroke="#a78bfa" stroke-width="2"/>
      <path d="M180,167 L175,260 L200,255 L225,260 L220,167" fill="none" stroke="#a78bfa" stroke-width="2"/>
      <line x1="200" y1="190" x2="165" y2="220" stroke="#a78bfa" stroke-width="2"/>
      <line x1="200" y1="190" x2="235" y2="210" stroke="#a78bfa" stroke-width="2"/>
      <circle cx="192" cy="140" r="4" fill="#c084fc"/>
      <circle cx="208" cy="140" r="4" fill="#c084fc"/>
      <path d="M120,270 Q160,230 200,260 Q240,230 280,270" fill="none" stroke="#a78bfa" stroke-width="1.5" opacity="0.4"/>
      <path d="M100,290 Q160,250 200,280 Q240,250 300,290" fill="none" stroke="#a78bfa" stroke-width="1" opacity="0.2"/></g>
  <rect x="2" y="2" width="396" height="396" fill="none"
    stroke="#9CA3AF"
    stroke-width="1" stroke-opacity="0.3"/>
</svg>