<svg xmlns="http://www.w3.org/2000/svg" width="400" height="400" viewBox="0 0 400 400">
  <defs>
    <radialGradient id="bg" cx="50%" cy="40%" r="70%">
      <stop offset="0%" stop-color="#2a1a0a"/>
      <stop offset="100%" stop-color="#1a0f0a"/>
    </radialGradient>
    <radialGradient id="glow" cx="50%" cy="45%" r="50%">
      <stop offset="0%" stop-color="#9CA3AF" stop-opacity="0.15"/>
      <stop offset="100%" stop-color="#9CA3AF" stop-opacity="0"/>
    </radialGradient>
    
  </defs>
  <rect width="400" height="400" fill="url(#bg)"/>
  <ellipse cx="200" cy="180" rx="150" ry="120" fill="url(#glow)"/>
  <circle cx="80" cy="60" r="1.5" fill="#f59e0b" opacity="0.4"/>
  <circle cx="320" cy="90" r="1" fill="#ef4444" opacity="0.3"/>
  <circle cx="50" cy="300" r="1.2" fill="#9CA3AF" opacity="0.35"/>
  <circle cx="350" cy="280" r="1.8" fill="#f59e0b" opacity="0.25"/>
  <circle cx="150" cy="350" r="1" fill="#ef4444" opacity="0.3"/>
  <circle cx="300" cy="40" r="1.3" fill="#9CA3AF" opacity="0.3"/>
  <g opacity="0.9">
      <circle cx="200" cy="140" r="22" fill="none" stroke="#f59e0b" stroke-width="2"/>
      <path d="M178,162 L168,275 L200,265 L232,275 L222,162" fill="none" stroke="#f59e0b" stroke-width="2"/>
      <line x1="200" y1="120" x2="235" y2="90" stroke="#ef4444" stroke-width="1.5"/>
      <circle cx="238" cy="87" r="6" fill="#ef4444" opacity="0.4"/>
      <line x1="200" y1="195" x2="165" y2="230" stroke="#f59e0b" stroke-width="2"/>
      <line x1="200" y1="195" x2="235" y2="230" stroke="#f59e0b" stroke-width="2"/>
      <path d="M130,290 Q200,270 270,290" fill="none" stroke="#f59e0b" stroke-width="1" opacity="0.3"/>
      <path d="M110,300 Q200,275 290,300" fill="none" stroke="#f59e0b" stroke-width="1" opacity="0.15"/></g>
  <rect x="2" y="2" width="396" height="396" fill="none"
    stroke="#9CA3AF"
    stroke-width="1" stroke-opacity="0.3"/>
</svg>